<?xml version="1.0" encoding="utf-8"?>
<!-- Generator: Adobe Illustrator 17.0.0, SVG Export Plug-In . SVG Version: 6.00 Build 0)  -->
<!DOCTYPE svg PUBLIC "-//W3C//DTD SVG 1.1//EN" "http://www.w3.org/Graphics/SVG/1.1/DTD/svg11.dtd">
<svg version="1.1" id="Layer_1" xmlns="http://www.w3.org/2000/svg" xmlns:xlink="http://www.w3.org/1999/xlink" x="0px" y="0px"
	 width="486.923px" height="417.145px" viewBox="0 0 486.923 417.145" enable-background="new 0 0 486.923 417.145"
	 xml:space="preserve">
<g>
	<path fill="#FAFAFA" d="M484.751,202.946c-0.434,0-0.723,0.29-1.158,0.868c-2.606,3.619-16.793,21.136-20.991,25.915
		c-9.7,11.146-21.136,21.714-31.126,21.714c-3.185,0-4.633-1.881-4.633-5.066c0-1.883,0.144-3.909,0.435-5.935
		c12.449-6.516,41.549-25.77,41.549-32.719c0-7.383-5.501-8.107-8.396-9.988c-4.344-2.897-5.212-10.569-10.135-10.569
		c-12.214,0-27.283,19.342-33.474,38.155c-1.546,1.86-2.858,3.412-3.732,4.408c-6.37,8.106-13.898,13.753-16.214,15.201
		c-1.883,1.158-3.33,1.737-4.199,1.737c-1.159,0-1.592-0.869-1.592-2.316c0-8.252,20.557-41.405,36.048-65.292
		c21.426-0.58,47.63-2.172,47.63-7.529c0-1.159-1.448-1.737-1.448-2.317c0-0.288,0.434-0.578,2.026-0.722
		c4.054-2.317,6.949-3.331,6.949-3.911c0-0.288-1.014-0.578-6.369-0.868c-9.846,0-24.322,0.58-39.378,1.014
		c1.448-2.317,2.895-4.343,4.054-6.08c0.579-0.869,1.012-2.172,1.012-3.476c0-4.921-7.092-10.278-11.436-10.278
		c-2.461,0-5.647,0.724-6.949,4.054c-1.159,3.185-4.053,8.975-7.963,16.214c-7.672,0-15.056-0.29-21.281-0.868
		c-0.87,0-1.882,2.317-1.882,5.211c0,4.343,2.316,9.7,11.582,9.7h4.053c-6.368,12.085-13.459,25.69-18.961,37.594
		c-4.281,5.281-8.679,10.611-10.718,12.932c-9.7,11.146-21.136,21.714-31.126,21.714c-3.185,0-4.633-1.881-4.633-5.066
		c0-1.883,0.145-3.909,0.434-5.935c12.452-6.516,41.55-25.77,41.55-32.719c0-7.383-5.501-8.107-8.397-9.988
		c-4.343-2.897-5.211-10.569-10.133-10.569c-6.188,0-13.104,4.973-19.231,12.313c3.739-7.072,6.776-13.617,8.564-18.828h2.606
		c14.766,0,28.664-3.764,28.664-11.002c0-2.172-1.301-4.779-4.342-7.673c-8.831,5.356-16.504,7.673-22.295,7.673
		c-1.447,0-2.75-0.146-3.908-0.436c-2.029-3.618-6.949-6.224-10.714-6.224c-4.053,0-9.265,3.62-9.265,7.818
		c0,1.447,0.579,3.039,1.882,4.343c-5.502,35.758-32.14,73.543-36.772,73.543c-0.145,0-0.291-0.144-0.291-0.433
		c0-19.979,25.77-51.684,25.77-54.29c0-4.488-7.672-8.687-11.291-8.687c-7.966,0-15.717,19.97-20.536,37.874
		c-2.32,2.813-4.327,5.21-5.525,6.572c-9.699,11.146-21.136,21.714-31.126,21.714c-3.184,0-4.632-1.881-4.632-5.066
		c0-1.883,0.145-3.909,0.434-5.935c12.45-6.516,41.549-25.77,41.549-32.719c0-7.383-5.5-8.107-8.396-9.988
		c-4.343-2.897-5.211-10.569-10.134-10.569c-12.213,0-27.283,19.341-33.473,38.153c-1.548,1.861-2.86,3.414-3.735,4.41
		c-5.791,6.659-13.608,14.622-15.056,15.924c-1.158,1.158-2.462,2.028-3.475,2.028c-0.868,0-1.592-0.725-1.592-2.462
		c0-9.555,14.912-27.218,19.834-33.731c1.302-1.882,1.882-3.33,1.882-4.633c0-5.501-10.568-6.226-14.623-9.266
		c0.29,0,2.607-5.212,2.607-9.41c0-2.896-1.158-5.501-4.923-5.501c-12.449,0.145-22.729,8.686-22.729,16.215
		c0,4.053,2.751,7.817,9.555,9.988c-2.461,3.041-6.224,8.108-7.818,9.99c-0.455,0.556-0.799,1.076-1.061,1.549
		c-3.234,3.955-6.2,7.522-7.769,9.309c-6.369,8.106-13.899,13.753-16.215,15.201c-1.881,1.158-3.33,1.737-4.197,1.737
		c-1.159,0-1.594-0.869-1.594-2.316c0-8.252,20.557-41.405,36.049-65.292c21.426-0.58,47.63-2.172,47.63-7.529
		c0-1.159-1.449-1.737-1.449-2.317c0-0.288,0.436-0.578,2.028-0.722c4.053-2.317,6.948-3.331,6.948-3.911
		c0-0.288-1.013-0.578-6.369-0.868c-9.845,0-24.321,0.58-39.378,1.014c1.447-2.317,2.894-4.343,4.053-6.08
		c0.58-0.869,1.014-2.172,1.014-3.476c0-4.921-7.094-10.278-11.438-10.278c-2.459,0-5.646,0.724-6.949,4.054
		c-1.159,3.185-4.053,8.975-7.961,16.214c-7.674,0-15.057-0.29-21.282-0.868c-0.869,0-1.882,2.317-1.882,5.211
		c0,4.343,2.316,9.7,11.582,9.7h4.053c-5.087,9.656-10.635,20.279-15.466,30.232c0.666-2.663,1.038-5.069,1.038-7.068
		c0-5.936-3.186-7.673-7.529-7.673c-3.184,0-6.803,0.869-10.423,1.737c0.145-0.435,0.289-1.013,0.289-1.593
		c0-4.923-4.921-9.988-9.265-9.988c-2.461,0-5.647,0.723-6.949,4.053c-2.573,6.323-5.173,12.529-7.871,18.755
		c0.404-1.958,0.63-3.749,0.63-5.291c0-5.936-3.185-7.673-7.527-7.673c-3.185,0-6.805,0.869-10.424,1.737
		c0.145-0.435,0.289-1.013,0.289-1.593c0-4.923-4.922-9.988-9.264-9.988c-2.462,0-5.648,0.723-6.95,4.053
		c-8.139,20.003-16.546,38.814-27.509,60.88c6.733-34.276,25.371-80.627,33.877-89.545c0.579-0.579,0.723-1.159,0.723-1.737
		c-0.144-10.135-13.464-7.674-17.662-10.858c-3.329-2.607-5.791-3.909-7.816-3.909c-3.041,0-5.502,3.041-9.991,8.832
		c-26.203,34.02-46.906,60.224-69.923,92.364C0.29,246.377,0,247.246,0,247.824c0,4.633,6.37,12.885,11.436,12.885
		c1.594,0,2.028-1.158,2.896-2.172c4.923-6.658,15.926-25.189,21.427-26.782c2.896-0.868,20.702-3.04,21.57-3.04
		c3.041,0,3.619,0.724,3.619,1.882c-0.289,2.316-2.461,18.676-2.75,22.44c0,4.053,5.211,6.225,9.121,6.225h0.01
		c-3.943,7.757-8.211,15.949-12.894,24.755c-0.288,0.725-0.433,1.448-0.433,2.028c0,5.646,8.831,9.99,11.002,9.99
		c2.028,0,2.606-0.869,3.474-3.186c7.24-18.386,13.031-32.14,18.386-43.287c2.751,4.633,6.08,6.514,9.7,6.514
		c7.242,0,15.526-7.969,22.412-18.082c-6.661,13.855-14.249,28.769-23.424,46.023c-0.288,0.725-0.434,1.448-0.434,2.028
		c0,5.646,8.831,9.99,11.003,9.99c2.027,0,2.606-0.869,3.474-3.186c7.24-18.386,13.03-32.14,18.386-43.287
		c2.751,4.633,6.08,6.514,9.7,6.514c8.404,0,18.218-10.728,25.616-23.094c-1.666,4.704-2.646,8.58-2.646,11.224
		c0,6.514,7.818,13.753,13.899,13.753c1.447,0,2.605-0.434,3.763-1.303c5.647-4.488,15.057-15.056,19.69-21.426
		c6.535-8.988,13.444-18.628,17.926-25.29c1.236,0.253,2.581,0.398,3.934,0.534c-5.645,11.147-14.188,30.691-14.188,42.127
		c0,5.358,1.883,8.832,6.804,8.832c8.04,0,20.684-13.377,28.032-22.697c-0.054,0.821-0.089,1.633-0.089,2.429
		c0,11.003,13.755,19.255,19.255,19.255c8.717,0,21.793-10.588,31.655-23.407c-1.081,5.437-1.687,9.819-1.687,12.114
		c0,6.515,10.858,9.845,14.189,9.845c3.964,0,17.356-17.536,29.686-37.14c-2.562,6.651-4.11,13.388-4.11,19.333
		c0,11.003,13.753,19.255,19.255,19.255c8.9,0,22.34-11.035,32.268-24.215c-1.006,3.261-1.575,5.99-1.575,8.001
		c0,6.514,7.819,13.753,13.898,13.753c1.448,0,2.606-0.434,3.764-1.303c4.714-3.746,12.04-11.723,17.032-17.965
		c-0.057,0.837-0.094,1.665-0.094,2.474c0,11.003,13.754,19.255,19.256,19.255c9.12,0,23.017-11.58,33.007-25.19
		c8.253-11.292,16.794-23.308,20.702-29.533C486.923,205.697,486.055,202.946,484.751,202.946 M63.845,215.83
		c-1.303,0-9.41,0-13.175-0.578c-1.593-0.29-2.171-0.87-2.171-1.594c0-1.88,19.978-24.611,21.426-24.611
		c0.433,0,0.433,0.58,0.433,1.593L63.845,215.83z M95.261,245.508c-1.737,0-3.475-0.724-5.211-2.605
		c6.369-12.885,12.015-22.73,18.241-33.442c1.593-0.29,3.475-0.435,4.054-0.435c2.027,0,2.895,1.303,2.895,3.474
		C115.24,221.621,100.039,245.508,95.261,245.508 M136.378,245.508c-1.736,0-3.475-0.724-5.211-2.605
		c6.369-12.885,12.016-22.73,18.241-33.442c1.593-0.29,3.474-0.435,4.053-0.435c2.028,0,2.895,1.303,2.895,3.474
		C156.356,221.621,141.155,245.508,136.378,245.508 M280.669,205.262c0.433,0,1.014,0.145,1.447,0.29
		c-2.75,5.501-8.252,14.477-25.914,26.493C260.835,219.45,270.534,207.723,280.669,205.262 M369.657,205.262
		c0.434,0,1.014,0.145,1.447,0.29c-2.75,5.501-8.251,14.477-25.914,26.493C349.823,219.45,359.522,207.723,369.657,205.262
		 M454.206,205.262c0.434,0,1.013,0.145,1.446,0.29c-2.75,5.501-8.251,14.477-25.913,26.493
		C434.372,219.45,444.071,207.723,454.206,205.262"/>
	<path fill="#FAFAFA" d="M288.921,183.547c15.201,0,22.149-7.384,22.149-13.463c0-4.345-3.474-7.964-9.698-7.964
		c-5.646,0-4.778,14.043-15.926,18.531c-1.447,0.58-2.027,1.16-2.027,1.593C283.419,183.112,285.735,183.547,288.921,183.547"/>
	<g>
		<path fill="#FAFAFA" d="M292.393,191.6c1.046,0.501,2.54,1.217,4.09,2.317c0.576-1.169,1.148-2.249,1.717-3.263
			c-1.915,0.389-3.957,0.659-6.127,0.791C292.183,191.5,292.293,191.552,292.393,191.6z"/>
		<path fill="#FAFAFA" d="M230.904,155.17c0,0.382-0.016,0.766-0.048,1.15c9.97-0.317,19.344-0.608,26.359-0.608h0.217l0.215,0.012
			c2.838,0.153,4.69,0.313,6.001,0.519c7.713,1.21,7.936,7.612,7.936,8.337c0,5.299-4.226,7.394-7.022,8.781
			c-0.23,0.114-0.471,0.234-0.724,0.36c-1.826,8.741-14.673,10.327-22.58,11.305c-1.368,0.169-2.814,0.328-4.341,0.478
			c0.14,0.856,0.212,1.749,0.212,2.675c0,0.061-0.057,2.235-0.572,5.028c3.386,1.235,7.888,3.174,10.489,6.846
			c8.102-11.692,18.6-20.428,28.941-20.847c0.768-2.021,2.531-4.4,6.487-5.983c3.016-1.215,4.412-3.921,6.35-8.233
			c1.827-4.065,4.886-10.871,12.547-10.871c11.619,0,17.698,8.031,17.698,15.964c0,2.515-0.583,5.036-1.723,7.422
			c3.319,0.564,7.398,2.272,10.745,4.936c0.447-1.82,0.846-3.648,1.19-5.47c-0.951-1.913-1.454-4.011-1.454-6.165
			c0-9.054,9.115-15.819,17.265-15.819c5.392,0,11.114,2.648,14.956,6.657c2.903-0.069,8.829-1.061,17.812-6.509l0.963-0.584
			c1.46-8.382,2.016-15.88,2.352-25.645c0.174-6.862,1.431-13.386,5.572-19.988c4.186-6.48,37.996-47.945,38.355-48.318
			c1.772-3.089,3.37-2.853,5.075-3.451c4.713-5.081,9.48-8.731,14.181-13.803c0.091-0.096,0.171-0.184,0.259-0.289
			c1.392-1.493,3.111-3.028,3.171-4.399c-3.076-3.875-10.197-11.077-16.312-16.994l0.086-0.092c-1.077-1-2.405-2.214-3.893-3.548
			c-1.296-1.227-2.476-2.324-3.465-3.226l-0.076,0.082C417.737,9.266,409.983,2.752,405.872,0c-1.363,0.171-2.754,2.007-4.129,3.516
			c-0.098,0.096-0.179,0.184-0.266,0.282c-4.673,5.097-7.927,10.142-12.609,15.252c-0.457,1.748-0.093,3.322-3.031,5.338
			c-0.34,0.388-38.93,37.448-45.047,42.144c-6.247,4.662-12.65,6.444-19.474,7.174c-14.391,1.668-23.766,3.406-38.209,8.295
			c-16.265,5.504-32.424,14.756-47.227,32.839c-6.177,7.556-12.087,15.464-17.939,23.476
			C224.681,141.148,230.904,147.852,230.904,155.17z"/>
		<path fill="#FAFAFA" d="M283.872,256.681c-7.77,6.762-16.381,11.739-24.195,11.739c-6.5,0-16.74-5.182-22.643-13.524
			c-7.758,7.938-16.6,14.537-24.555,14.537c-6.829,0-14.804-4.408-14.804-16.832c0-1.445,0.105-2.97,0.299-4.552
			c-4.855,5.65-10.572,11.601-14.683,14.871l-0.18,0.138c-2.568,1.924-5.449,2.901-8.561,2.901c-7.056,0-14.198-4.645-18.328-10.856
			c-5.423,5.121-11.757,8.973-18.541,8.973c-2.041,0-4.451-0.336-6.941-1.406c-3.915,8.791-8.308,19.416-13.677,33.048
			c-0.799,2.133-3.192,8.317-10.942,8.317c-4.16,0-12.513-3.801-16.615-10.208c-2.729,3.492-5.427,7-8.062,10.542
			c-5.57,0.018-10.03,7.494-17.065,14.594c-4.497,4.521-8.118,7.908-7.847,11.584c-0.084,0.082-0.173,0.189-0.254,0.27
			c-7.273,14.052,2.941,32.519,18.262,48.47l-0.18,0.196c1.245,1.166,9.881,9.06,11.161,10.179
			c1.17,1.133,9.736,9.004,10.945,10.102l0.172-0.186c17.138,13.979,36.374,22.664,49.79,14.272c0.073-0.082,0.171-0.18,0.249-0.27
			c3.687-0.029,6.767-3.912,10.91-8.76c6.504-7.589,13.595-12.64,13.162-18.193c42.82-37.608,80.375-83.131,123.027-122.109
			C289.96,262.839,286.174,260.264,283.872,256.681z"/>
		<path fill="#FAFAFA" d="M195.576,215.825c0.427-0.689,0.912-1.368,1.448-2.022l0.083-0.101c0.434-0.511,1.139-1.408,1.938-2.439
			c-0.318-0.29-0.617-0.584-0.901-0.88c-1.865,3.074-3.534,5.877-5.029,8.435C193.882,217.891,194.706,216.888,195.576,215.825z"/>
	</g>
	<g>
		<path fill="#FAFAFA" d="M81.218,135.734c0.124,0,0.246,0.009,0.369,0.013c6.907-16.13,16.227-31.545,28.037-45.714
			C168.208,19.75,267.848,3.884,344.436,48.235c3.347-3.108,7.182-6.709,11.042-10.354C272.403-12.7,162.609,3.766,98.459,80.727
			c-18.629,22.349-31.54,47.567-38.908,73.88c1.758-2.277,3.532-4.576,5.34-6.923C70.071,140.999,74.151,135.734,81.218,135.734z"/>
		<path fill="#FAFAFA" d="M405.566,105.361c7.024,10.457,12.9,21.501,17.584,32.952c2.076-0.925,4.448-1.421,7.023-1.421
			c2.934,0,6.137,1.01,9.082,2.726c-5.943-16.2-14.039-31.734-24.225-46.158C411.676,97.646,408.385,101.78,405.566,105.361z"/>
	</g>
	<g>
		<path fill="#FAFAFA" d="M82.855,284.256c-0.409-0.915-0.828-1.827-1.222-2.748c-1.154,2.828-2.36,5.828-3.616,8.982
			C79.619,288.406,81.223,286.324,82.855,284.256z"/>
		<path fill="#FAFAFA" d="M427.436,267.367c-7.101,21.226-18.191,41.515-33.386,59.744c-50.371,60.43-131.096,80.63-201.421,56.916
			c-3.25,3.033-6.516,6.04-9.816,8.986c-0.281,0.89-0.629,1.748-1.021,2.584c77.256,28.936,167.616,7.777,223.425-59.18
			c17.778-21.328,30.348-45.27,37.864-70.282c-3.344,1.444-6.671,2.285-9.866,2.285C431.5,268.42,429.522,268.051,427.436,267.367z"
			/>
	</g>
</g>
</svg>
