<?xml version="1.0" encoding="utf-8"?>
<!-- Generator: Adobe Illustrator 17.0.0, SVG Export Plug-In . SVG Version: 6.00 Build 0)  -->
<!DOCTYPE svg PUBLIC "-//W3C//DTD SVG 1.1//EN" "http://www.w3.org/Graphics/SVG/1.1/DTD/svg11.dtd">
<svg version="1.1" id="Layer_1" xmlns="http://www.w3.org/2000/svg" xmlns:xlink="http://www.w3.org/1999/xlink" x="0px" y="0px"
	 width="311.83px" height="368.389px" viewBox="0 0 311.83 368.389" enable-background="new 0 0 311.83 368.389"
	 xml:space="preserve">
<g>
	<path fill="#FAFAFA" d="M22.735,119.158C10.179,119.152,0.003,129.349,0,141.894l0.017,95.213
		c0.003,12.588,10.184,22.745,22.74,22.743c12.565,0.001,22.742-10.162,22.729-22.742l0.002-95.227
		C45.483,129.339,35.292,119.149,22.735,119.158 M206.089,33.657l15.869-28.981c0.847-1.514,0.291-3.443-1.244-4.298
		c-1.548-0.819-3.46-0.263-4.278,1.262l-16.029,29.283c-13.491-6.001-28.582-9.37-44.553-9.352
		c-15.929-0.014-31.016,3.341-44.448,9.308L95.36,1.673c-0.835-1.542-2.754-2.099-4.27-1.259c-1.544,0.831-2.108,2.763-1.253,4.274
		l15.877,28.959c-31.195,16.089-52.27,46.724-52.254,81.895l204.81-0.021C258.276,80.355,237.238,49.784,206.089,33.657
		 M109.271,78.439c-4.716-0.01-8.559-3.844-8.56-8.581c0.002-4.718,3.835-8.597,8.567-8.596c4.748-0.004,8.59,3.878,8.596,8.594
		C117.877,74.588,114.027,78.436,109.271,78.439 M202.529,78.422c-4.734,0.005-8.589-3.834-8.588-8.585
		c0.016-4.704,3.848-8.588,8.592-8.604c4.709,0.014,8.572,3.896,8.568,8.609C211.112,74.583,207.262,78.423,202.529,78.422
		 M54.296,123.451l0.035,147.555c-0.01,13.422,10.845,24.255,24.26,24.258l16.519,0.007l0.019,50.379
		c-0.003,12.541,10.193,22.739,22.72,22.739c12.564,0,22.742-10.206,22.746-22.755l-0.013-50.369l30.696-0.006l0.013,50.377
		c-0.003,12.535,10.199,22.749,22.729,22.729c12.563,0.008,22.747-10.198,22.745-22.749l-0.014-50.363l16.576-0.013
		c13.383,0.005,24.268-10.844,24.272-24.266l-0.025-147.558L54.296,123.451z M311.813,141.859
		c-0.002-12.557-10.18-22.734-22.736-22.731c-12.555-0.01-22.732,10.186-22.728,22.743l0.016,95.215
		c-0.001,12.57,10.172,22.73,22.736,22.733c12.555-0.002,22.727-10.163,22.729-22.743L311.813,141.859z"/>
</g>
</svg>
