<?xml version="1.0" encoding="utf-8"?>
<!-- Generator: Adobe Illustrator 17.0.0, SVG Export Plug-In . SVG Version: 6.00 Build 0)  -->
<!DOCTYPE svg PUBLIC "-//W3C//DTD SVG 1.1//EN" "http://www.w3.org/Graphics/SVG/1.1/DTD/svg11.dtd">
<svg version="1.1" id="Layer_1" xmlns="http://www.w3.org/2000/svg" xmlns:xlink="http://www.w3.org/1999/xlink" x="0px" y="0px"
	 width="130.28px" height="160px" viewBox="-232 -75 130.28 160" enable-background="new -232 -75 130.28 160" xml:space="preserve"
	>
<g>
	<title>Layer 1</title>
	<g id="svg_1">
		<path fill="#FAFAFA" d="M-123.194,10.003c0.225,24.213,21.241,32.271,21.474,32.373c-0.178,0.568-3.358,11.483-11.072,22.757
			c-6.669,9.747-13.59,19.458-24.493,19.659c-10.713,0.197-14.158-6.353-26.407-6.353c-12.245,0-16.072,6.152-26.214,6.55
			c-10.524,0.398-18.538-10.54-25.262-20.251c-13.74-19.864-24.24-56.132-10.141-80.614c7.004-12.158,19.521-19.856,33.107-20.054
			c10.335-0.197,20.089,6.953,26.407,6.953c6.314,0,18.167-8.598,30.629-7.336c5.217,0.217,19.861,2.107,29.264,15.871
			C-106.66-19.971-123.376-10.24-123.194,10.003 M-143.329-49.454c5.587-6.763,9.348-16.178,8.322-25.546
			c-8.054,0.324-17.793,5.367-23.569,12.126c-5.177,5.986-9.711,15.567-8.488,24.749C-158.087-37.43-148.916-42.686-143.329-49.454"
			/>
	</g>
</g>
</svg>
