<?xml version="1.0" encoding="utf-8"?>
<!-- Generator: Adobe Illustrator 17.0.0, SVG Export Plug-In . SVG Version: 6.00 Build 0)  -->
<!DOCTYPE svg PUBLIC "-//W3C//DTD SVG 1.1//EN" "http://www.w3.org/Graphics/SVG/1.1/DTD/svg11.dtd">
<svg version="1.1" id="Layer_1" xmlns="http://www.w3.org/2000/svg" xmlns:xlink="http://www.w3.org/1999/xlink" x="0px" y="0px"
	 width="500px" height="500px" viewBox="0 0 500 500" enable-background="new 0 0 500 500" xml:space="preserve">
<g>
	<g>
		<path fill="none" stroke="#FFFFFF" stroke-width="2" stroke-linecap="round" stroke-linejoin="round" d="M133.643,66.954
			c6.816,12.296-1.215-15.353,5.58-3.093c5.653,10.198-25.356,2.502-19.698,12.71c14.192,25.602,21.958-45.648,36.153-20.04
			c18.335,33.077-79.975,10.887-61.621,43.999c32.446,58.534,74.188-117.642,106.634-59.108
			c53.404,96.344-209.133,62.031-155.513,158.763c79.178,142.841,191.622-292.948,270.8-150.107
			C400.19,202.002-56.378,94.076,28.098,246.475c89.864,162.119,231.692-339.686,321.27-178.083
			c79.91,144.161-365.935,19.735-286.025,163.896C155.117,397.85,244.209-83.093,335.427,81.469
			c88.478,159.618-396.541,36.14-308.064,195.758c96.944,174.891,251.156-367.846,348.1-192.955
			c97.423,175.757-438.448,43.349-340.958,219.225C135.9,486.42,283.201-73.485,384.596,109.438
			C474.614,271.834-23.902,138.617,66.191,301.15C169.14,486.873,286.229-63.172,388.992,122.218
			C485.406,296.153-35.29,173.574,60.745,346.826C165.385,535.601,337.305-52.502,441.628,135.7
			c105.16,189.713-470.391,50.952-364.329,242.293C181.285,565.589,340.1-13.602,444.377,174.518
			C537.682,342.845,20.527,210.72,113.9,379.169C215.648,562.728,333.907,15.017,436.606,200.291
			c94.773,170.974-425.932,39.862-330.757,211.563c99.282,179.11,235.607-364.743,334.89-185.632
			c84.759,152.91-374.535,42.816-289.909,195.486c92.79,167.397,202.228-329.899,294.582-163.289
			c67.148,121.138-271.329,68.975-203.635,191.098c64.764,116.838,128.983-223.769,193.55-107.287
			c32.155,58.009-121.598,39.95-89.443,97.96c20.208,36.457,10.126-53.556,30.455-16.882c6.67,12.033-28.907,4.523-22.247,16.538
			c6.77,12.214-4.938-13.276,1.852-1.027"/>
		<g>
			<path fill="none" stroke="#000000" stroke-width="2" stroke-linecap="round" stroke-linejoin="round" d="M149.707,59.155
				c4.144,7.476,28.346-25.443,32.472-18c9.332,16.835,29.206-18.029,38.474-1.311c1.106,1.995,20.4-13.919,21.507-11.922
				c3.401,6.135,5.128,5.003,8.529,11.138c0.891,1.608,19.829-13.085,20.717-11.483c4.534,8.179-19.131,3.619-14.58,11.83
				c0.821,1.481,19.633-12.818,20.454-11.338c3.361,6.064-8.051,7.001-4.685,13.075c0.766,1.381,19.499-12.623,20.268-11.235
				c11.456,20.667,26.354,7.684,37.81,28.351c0.609,1.098,19.081-12.009,19.688-10.913c8.197,14.787,6.419,15.762,14.591,30.504
				c0.553,0.997,18.935-11.799,19.487-10.802c10.725,19.349,4.799,22.083,15.524,41.432c0.494,0.891,18.786-11.568,19.276-10.685
				c8.229,14.846-8.82,19.097-0.591,33.942c0.493,0.889,18.782-11.562,19.27-10.682c19.07,34.402-6.942,43.694,11.94,77.757
				c0.488,0.881,18.772-11.562,19.262-10.677c11.011,19.864-24.044,23.777-13.089,43.541c0.507,0.915,18.82-11.619,19.323-10.711
				c8.071,14.56-26.252,13.372-18.215,27.87c0.515,0.929,18.84-11.649,19.351-10.726c20.078,36.221-48.117,41.803-28.099,77.916
				c0.648,1.17,19.2-12.187,19.855-11.006c7.315,13.197-30.09,6.857-22.744,20.11c0.687,1.239,19.308-12.325,19.996-11.084
				c39.567,71.381-147.23,51.305-107.663,122.685c4.299,7.756,28.727-26.013,33.005-18.295"/>
			<path fill="none" stroke="#000000" stroke-width="2" stroke-linecap="round" stroke-linejoin="round" d="M133.405,65.974
				c6.795,12.259-1.27-15.274,5.505-3.051c5.712,10.305-25.631,2.514-19.913,12.829c5.46,9.85-0.82-12.425,4.641-2.573
				c12.838,23.16-54.432,9.706-41.58,32.891c1.567,2.828,21.58-15.658,23.147-12.831c33.277,60.032-110.291,54.902-76.88,115.176
				c0.619,1.117,19.108-12.052,19.727-10.935c13.554,24.451-38.145,25.902-24.549,50.43c0.526,0.948,18.877-11.699,19.401-10.754
				c6.152,11.099-25.7,5.087-19.548,16.185c0.529,0.954,18.875-11.703,19.401-10.754c9.177,16.556-25.612,17.549-16.435,34.105
				c0.499,0.901-0.38-0.967,0.119-0.066c6.93,12.501-4.176,16.19,2.758,28.7c0.471,0.849,18.72-11.487,19.191-10.638
				c6.904,12.456-22.507,11.396-15.597,23.862c0.465,0.839,18.706-11.463,19.17-10.626c9.513,17.162-2.034,21.438,7.442,38.533
				c0.454,0.819,2.812-2.626,3.264-1.809c9.359,16.885-6.745,21.819,2.695,38.848c0.459,0.828,18.693-11.447,19.153-10.617
				c6.357,11.469-13.597,13.999-7.236,25.476c0.46,0.83,18.704-11.463,19.168-10.625c6.979,12.59-8.208,16.243-1.2,28.887
				c0.478,0.862,18.739-11.514,19.217-10.652c7.683,13.861-0.694,17.08,6.977,30.919c0.512,0.924,18.831-11.641,19.341-10.721
				c18.362,33.126,44.331,9.992,62.842,43.387c0.736,1.327,19.426-12.498,20.159-11.175c18.39,33.177,57.199-26.696,75.589,6.481
				c2.137,3.856,23.1-17.875,25.25-13.996c7.565,13.648,22.228-23.705,29.781-10.078c6.75,12.177-4.992-13.197,1.777-0.985"/>
		</g>
	</g>
</g>
<g>
	<g>
		<path fill="none" stroke="#FFFFFF" stroke-width="2" stroke-linecap="round" stroke-linejoin="round" d="M293.34,396.309
			c18.807,33.93,24.494-57.932,43.302-24.003c15.029,27.112-7.417,34.417,7.612,61.529c0.162,0.291,17.915-10.313,18.077-10.02"/>
		<path fill="none" stroke="#FFFFFF" stroke-width="2" stroke-linecap="round" stroke-linejoin="round" d="M382.075,345.499
			c15.603,28.149,17.832-46.96,33.553-18.599c7.651,13.802-3.96,17.644,3.736,31.528c0.263,0.475,18.179-10.696,18.441-10.222"/>
		<path fill="none" stroke="#FFFFFF" stroke-width="2" stroke-linecap="round" stroke-linejoin="round" d="M62.195,151.793
			c0.262,0.472,18.181-10.692,18.441-10.222c8.125,14.657,6.26,15.793,14.307,30.31c51.331,92.603,98.793-175.818,150.124-83.215
			c36.385,65.641-157.304,23.297-120.928,88.921c51.643,93.167,77.934-165.68,129.869-71.988
			c45.058,81.287-198.059,24.282-153.034,105.508c69.55,125.472,182.02-264.157,251.247-139.268
			c74.325,134.085-307.534,65.036-233.199,199.141c72.779,131.296,146.719-253.477,219.714-121.79
			c68.461,123.506-314.937,19.253-245.885,143.826C166.034,425.043,273.003,20.564,346.186,152.59
			c82.881,149.522-358.127,55.748-275.461,204.881c94.78,170.987,263.77-369.217,358.33-198.626
			c88.517,159.689-373.547,68.694-285.259,227.969c78.497,141.612,180.591-283.954,258.548-143.316
			c54.856,98.963-226.686,48.297-171.83,147.259c52.29,94.334,101.441-179.549,153.731-85.215
			c48.359,87.242-202.984,38.815-154.625,126.057c15.712,28.345,35.265-56.76,51.044-28.294
			c16.763,30.242-58.309,25.064-41.567,55.269c1.91,3.445,22.506-16.988,24.42-13.536c4.284,7.729-17.817,3.658-13.53,11.393
			c0.246,0.444,8.134-5.089,8.38-4.645"/>
		<path fill="none" stroke="#FFFFFF" stroke-width="2" stroke-linecap="round" stroke-linejoin="round" d="M240.621,48.773
			c0.245,0.443,18.135-10.629,18.379-10.188c8.851,15.968-28.328,14.988-19.538,30.846c8.8,15.875,0.393-20.995,9.203-5.101
			c8.438,15.223-29.634,12.391-21.196,27.615c15.633,28.202,27.103-51.761,42.68-23.658c15.439,27.852-71.327,3.198-55.829,31.158
			c15.767,28.444,33.345-55.656,49.107-27.22"/>
		<path fill="none" stroke="#FFFFFF" stroke-width="2" stroke-linecap="round" stroke-linejoin="round" d="M137.709,76.205
			c0.162,0.293,17.916-10.312,18.078-10.021c5.241,9.455-23.445,2.415-18.199,11.879c0.67,1.209,19.241-12.246,19.911-11.037
			c4.265,7.695-13.537,7.276-9.268,14.979c3.463,6.248-1.401-7.391,2.062-1.143c13.54,24.426-14.742,31.808-1.148,56.332
			c35.144,63.402,76.777-125.441,111.921-62.039"/>
		<g>
			<path fill="none" stroke="#000000" stroke-width="2" stroke-linecap="round" stroke-linejoin="round" d="M139.188,77.381
				c0.565,1.02,18.973-11.855,19.54-10.831c14.321,25.837,28.41,15.617,42.721,41.434c0.32,0.577,18.327-10.913,18.646-10.336"/>
			<path fill="none" stroke="#000000" stroke-width="2" stroke-linecap="round" stroke-linejoin="round" d="M240.597,46.992
				c0.245,0.442,18.135-10.627,18.378-10.187c21.518,38.819-78.449,29.435-57.038,68.06c1.016,1.834,20.167-13.578,21.184-11.743"/>
			<path fill="none" stroke="#000000" stroke-width="2" stroke-linecap="round" stroke-linejoin="round" d="M241.484,50.028
				c0.478,0.862,18.741-11.51,19.217-10.652c10.302,18.586-8.144,23.912,2.131,42.448c0.473,0.854,18.728-11.498,19.202-10.644
				c15.641,28.217,46.887-11.013,62.59,17.316c0.524,0.946,18.867-11.684,19.387-10.746c8.422,15.193-26.542,14.458-18.128,29.638
				c0.519,0.936,18.861-11.676,19.379-10.742c9.263,16.71-27.032,17.212-17.843,33.789c0.52,0.938,18.848-11.674,19.368-10.736
				c13.781,24.861,35.413,3.688,49.206,28.571c0.878,1.584,11.799-8.61,12.676-7.027c14.156,25.538-43.255,25.169-29.161,50.595
				c0.825,1.488,19.65-12.825,20.47-11.347c18.024,32.516,3.705,38.593,21.729,71.109c0.533,0.961,18.885-11.727,19.419-10.764
				c25.236,45.527-81.127,43.162-55.66,89.106c0.468,0.845,18.724-11.493,19.197-10.641c9.249,16.686-15.047,21.111-5.849,37.705
				c0.474,0.855,18.736-11.499,19.208-10.647"/>
			<path fill="none" stroke="#000000" stroke-width="2" stroke-linecap="round" stroke-linejoin="round" d="M351.492,363.895
				c1.102,1.988,20.368-13.884,21.468-11.9c7.638,13.779,22.882-5.413,30.57,8.456c1.116,2.013,20.412-13.923,21.518-11.928
				c2.774,5.004-6.926,5.73-4.128,10.777c0.263,0.475,18.179-10.697,18.442-10.223"/>
			<path fill="none" stroke="#000000" stroke-width="2" stroke-linecap="round" stroke-linejoin="round" d="M348.466,362.748
				c0.336,0.605,18.368-10.973,18.703-10.367c6.346,11.448-25.53,6.363-19.185,17.81c0.551,0.995,18.944-11.813,19.501-10.809
				c13.762,24.827-35.946,27.432-22.184,52.259c0.562,1.013,18.959-11.831,19.519-10.82c9.046,16.319-29.879,14.849-20.836,31.163
				c0.563,1.016,18.964-11.843,19.529-10.825"/>
			<path fill="none" stroke="#000000" stroke-width="2" stroke-linecap="round" stroke-linejoin="round" d="M281.723,404.192
				c0.571,1.031,18.982-11.869,19.554-10.839c14.728,26.57,29.162,15.443,43.89,42.013c0.162,0.291,17.915-10.313,18.077-10.02"/>
			<path fill="none" stroke="#000000" stroke-width="2" stroke-linecap="round" stroke-linejoin="round" d="M279.905,402.352
				c0.318,0.573,18.327-10.913,18.647-10.336c21.171,38.194-77.938,28.739-56.641,67.16c1.037,1.871,20.2-13.638,21.235-11.771"/>
			<path fill="none" stroke="#000000" stroke-width="2" stroke-linecap="round" stroke-linejoin="round" d="M60.639,150.923
				c0.262,0.473,18.181-10.693,18.442-10.223c9.795,17.671-13.322,22.744-3.619,40.247c0.472,0.852,18.724-11.493,19.197-10.641
				c7.228,13.04-17.938,14.791-10.712,27.827c0.468,0.844,18.719-11.485,19.19-10.637c5.474,9.875-8.525,12.506-3.055,22.374
				c0.467,0.842,0.545-1.398,1.01-0.56c19.77,35.666-37.392,43.972-17.62,79.643c0.526,0.949,18.868-11.703,19.396-10.751
				c4.784,8.63-18.061,6.162-13.236,14.866c0.527,0.95,18.866-11.7,19.393-10.75c21.023,37.927-63.697,38.047-42.729,75.875
				c0.874,1.577,16.744-11.338,17.616-9.765c15.848,28.59,34.176,13.625,49.983,42.142c0.521,0.941,18.856-11.673,19.374-10.739
				c13.263,23.927,35.381,1.122,48.644,25.049c0.471,0.849,18.72-11.486,19.19-10.637c9.709,17.516-9.171,22.534,0.538,40.049
				c0.472,0.852,18.73-11.501,19.204-10.645c8.317,15.005-11.753,19.152-3.446,34.138c0.475,0.857,18.739-11.51,19.215-10.651
				c3.124,5.635-9.726,5.439-6.6,11.078c0.246,0.443,8.133-5.087,8.379-4.644"/>
			<path fill="none" stroke="#000000" stroke-width="2" stroke-linecap="round" stroke-linejoin="round" d="M64.647,152.163
				c1.116,2.013,20.415-13.937,21.526-11.932c5.23,9.435,14.324-0.174,19.518,9.197c1.101,1.986,20.386-13.9,21.488-11.911
				c2.803,5.057,2.822,5.047,5.625,10.104c0.335,0.604,18.37-10.969,18.703-10.367"/>
			<path fill="none" stroke="#000000" stroke-width="2" stroke-linecap="round" stroke-linejoin="round" d="M136.835,74.694
				c0.162,0.293,17.916-10.312,18.078-10.021c5.241,9.455-23.445,2.415-18.199,11.879c0.67,1.209,19.241-12.246,19.911-11.037
				c7.163,12.923-27.75,8.313-20.58,21.25c0.543,0.979,18.908-11.761,19.451-10.782c17.532,31.628-40.874,37.391-23.272,69.147
				c0.549,0.991,18.924-11.785,19.473-10.794"/>
		</g>
	</g>
</g>
<g>
	<g>
		<path fill="none" stroke="#FFFFFF" stroke-width="2" stroke-linecap="round" stroke-linejoin="round" d="M179.669,144.4
			c5.466,9.861-4.741-10.224,0.709-0.393c3.381,6.099-14.811,2.019-11.427,8.125c11.01,19.863,13.658-33.543,24.671-13.675
			c12.951,23.364-54.958,9.731-41.994,33.12c24.674,44.514,53.92-88.079,78.594-43.565c38.911,70.198-138.595,57.248-99.527,127.73
			c55.957,100.949,131.059-204.613,187.016-103.664c57.991,104.618-250.549,38.514-192.377,143.459
			c60.34,108.856,153.903-227.16,214.051-118.65c49.69,89.643-226.662,13.803-176.972,103.446
			c61.051,110.139,100.553-198.847,161.235-89.374c55.469,100.069-244.094,29.482-188.624,129.551
			c61.481,110.914,158.665-232.943,220.146-122.029c59.204,106.807-260.63,34.979-201.385,141.858
			c59.501,107.343,139.431-217.613,198.932-110.27c46.393,83.696-207.109,20.514-160.676,104.281
			c57.422,103.593,101.22-191.286,158.539-87.88c44.892,80.987-185.28,39.905-140.564,120.574
			c46.378,83.667,123.476-177.488,169.714-94.074c36.232,65.364-147.625,35.991-111.082,101.916
			c22.298,40.227,49.156-79.982,71.517-39.642c14.219,25.651-61.57,9.936-47.341,35.606c5.415,9.769,31.747-30.488,37.213-20.627"/>
		<g>
			<path fill="none" stroke="#000000" stroke-width="2" stroke-linecap="round" stroke-linejoin="round" d="M190.239,139.608
				c3.19,5.756,25.849-21.82,29.025-16.089c6.518,11.759,19.866-6.263,26.339,5.416c0.88,1.588,19.807-13.058,20.688-11.468
				c3.554,6.411-0.96,8.018,2.593,14.428c0.672,1.213,19.255-12.253,19.924-11.044c4.704,8.487-19.929,3.658-15.207,12.177
				c0.656,1.183,19.202-12.189,19.858-11.007c4.076,7.353-11.997,7.501-7.915,14.865c0.591,1.066,19.041-11.955,19.635-10.884
				c10.461,18.871,11.767,18.117,22.228,36.988c0.478,0.863,18.741-11.513,19.218-10.653c9.051,16.328-6.62,20.982,2.403,37.26
				c0.455,0.821,18.679-11.427,19.134-10.606c12.581,22.697-15.77,29.107-3.189,51.804c0.483,0.871,18.756-11.525,19.234-10.662
				c11.255,20.305-28.434,22.832-17.179,43.137c0.531,0.958,18.882-11.708,19.409-10.758
				c31.705,57.197-106.498,50.445-75.107,107.077c3.324,5.997,26.2-22.396,29.538-16.373"/>
			<path fill="none" stroke="#000000" stroke-width="2" stroke-linecap="round" stroke-linejoin="round" d="M170.19,148.504
				c5.187,9.358,31.037-29.401,36.209-20.071c12.844,23.172-58.663,3.988-45.806,27.181c4.132,7.454,28.271-25.418,32.404-17.962
				c16.023,28.906-69.247,10.399-53.208,39.336c1.211,2.184,20.65-14.302,21.861-12.118c26.473,47.759-74.573,51.212-47.993,99.164
				c0.5,0.901,18.795-11.597,19.295-10.695c10.996,19.837-23.531,23.853-12.501,43.752c0.458,0.826,18.698-11.44,19.154-10.617
				c5.592,10.088-23.081,4.955-17.489,15.044c0.461,0.831,18.697-11.443,19.154-10.617c7.676,13.848-17.114,16.379-9.438,30.227
				c0.445,0.803,18.653-11.39,19.099-10.587c7.683,13.861-10.588,17.966-2.9,31.836c0.475,0.858,18.732-11.505,19.208-10.647
				c5.393,9.729-14.558,10.557-9.161,20.295c0.49,0.884,18.771-11.558,19.26-10.676c9.656,17.421,20.68,8.511,30.298,25.863
				c0.596,1.075,3.184-3.165,3.778-2.094c10.911,19.684,31.086-2.843,42.091,17.01c1.173,2.116,20.56-14.171,21.737-12.049
				c4.421,7.976,13.935-6.494,18.359,1.488c5.139,9.271,31.02-29.427,36.207-20.07"/>
		</g>
	</g>
</g>
<g>
	<g>
		<path fill="none" stroke="#FFFFFF" stroke-width="2" stroke-linecap="round" stroke-linejoin="round" d="M276.102,323.027
			c9.664,17.433-4.777-19.984,4.819-2.671c13.112,23.655,12.113,24.37,25.16,47.907c0.281,0.507,18.232-10.77,18.514-10.262
			c5.009,9.036-22.571,2.022-17.576,11.034c0.086,0.156,2.458-1.567,2.545-1.411"/>
		<path fill="none" stroke="#FFFFFF" stroke-width="2" stroke-linecap="round" stroke-linejoin="round" d="M331.126,291.699
			c9.313,16.801-4.377-19.422,4.887-2.709c8.996,16.229,10.035,15.69,19.006,31.874c0.124,0.223,17.815-10.167,17.939-9.944"/>
		<path fill="none" stroke="#FFFFFF" stroke-width="2" stroke-linecap="round" stroke-linejoin="round" d="M234.155,323.765
			c26.992,48.694,43.125-87.428,70.06-38.835c18.985,34.249-74.496,21.629-55.387,56.102c8.666,15.634-0.065-20.229,8.528-4.727
			c12.712,22.932-29.094,27.194-16.274,50.323c0.118,0.213,17.801-10.146,17.919-9.933"/>
		<path fill="none" stroke="#FFFFFF" stroke-width="2" stroke-linecap="round" stroke-linejoin="round" d="M352.467,256.041
			c11.69,21.09,4.546-30.09,16.236-9c1.653,2.983-0.947,3.801,0.707,6.784c3.646,6.577,4.838-11.36,8.517-4.721
			c2.426,4.376-9.771,2.42-7.345,6.796c0.638,1.151,19.158-12.121,19.795-10.973"/>
		<path fill="none" stroke="#FFFFFF" stroke-width="2" stroke-linecap="round" stroke-linejoin="round" d="M109.623,255.073
			c0.638,1.151,19.157-12.124,19.795-10.973c15.905,28.693,10.441,31.397,26.346,60.09
			C216.687,414.097,300.34,79.875,361.473,190.163c46.705,84.258-198.391,34.77-152.113,118.257
			c41.278,74.467,83.774-142.994,124.716-69.131c49.15,88.669-208.251,39.83-158.635,129.338c0.503,0.907,14.845-9.42,15.35-8.509"
			/>
		<path fill="none" stroke="#FFFFFF" stroke-width="2" stroke-linecap="round" stroke-linejoin="round" d="M305.464,141.958
			c0.504,0.909,18.816-11.627,19.324-10.711c17.735,31.995-76.294,12.533-58.453,44.718c11.442,20.643,4.895-29.636,16.31-9.041"/>
		<path fill="none" stroke="#FFFFFF" stroke-width="2" stroke-linecap="round" stroke-linejoin="round" d="M127.042,189.08
			c0.123,0.222,17.817-10.165,17.939-9.944c8.407,15.166,15.909,9.785,24.235,24.807c8.41,15.172-0.806-19.387,7.604-4.215
			c6.101,11.006,17.47-2.178,23.57,8.825c27.137,48.957,13.639-71.92,40.929-22.688c19.594,35.348-87.53,8.452-67.951,43.773
			c38.408,69.29,100.213-145.708,138.442-76.74"/>
		<path fill="none" stroke="#FFFFFF" stroke-width="2" stroke-linecap="round" stroke-linejoin="round" d="M240.998,123.305
			c0.118,0.213,17.802-10.145,17.919-9.933c10.679,19.265-37.476,15.778-26.87,34.91c4.235,7.64,28.626-25.866,32.865-18.218
			c6.891,12.432-21.864,11.734-14.973,24.165c7.523,13.573,5.843-20.919,13.34-7.395c8.191,14.777-36.163,4.401-27.94,19.236
			c8.32,15.009,13.92-27.331,22.237-12.326c0.968,1.746,1.221,1.597,2.191,3.345c9.22,16.633-0.207-21.732,9.057-5.02"/>
		<path fill="none" stroke="#FFFFFF" stroke-width="2" stroke-linecap="round" stroke-linejoin="round" d="M175.192,140.826
			c0.087,0.157,17.719-10.026,17.806-9.87c5.051,9.112-22.565,2.375-17.509,11.496c0.359,0.647,18.428-11.061,18.787-10.414
			c6.263,11.298-23.426,8.042-17.157,19.352c1.854,3.344,22.327-16.748,24.181-13.404c12.512,22.571-12.063,29.401,0.5,52.064
			c19.156,34.559,35.08-64.623,54.236-30.064"/>
		<g>
			<path fill="none" stroke="#000000" stroke-width="2" stroke-linecap="round" stroke-linejoin="round" d="M176.9,143.082
				c0.496,0.894,18.794-11.594,19.293-10.694c11.547,20.831,8.065,22.881,19.535,43.573c0.508,0.917,18.82-11.625,19.325-10.712
				c4.364,7.872-15.976,6.019-11.619,13.88c0.184,0.331,11.932-7.043,12.114-6.715"/>
			<path fill="none" stroke="#000000" stroke-width="2" stroke-linecap="round" stroke-linejoin="round" d="M240.998,120.429
				c0.118,0.213,17.801-10.147,17.92-9.933c15.702,28.328-49.699,26.933-34.098,55.077c0.712,1.284,19.349-12.403,20.06-11.12
				c7.895,14.243-32.006,7.992-24.07,22.308c0.711,1.283,19.364-12.427,20.082-11.132"/>
			<path fill="none" stroke="#000000" stroke-width="2" stroke-linecap="round" stroke-linejoin="round" d="M241.424,125.766
				c0.463,0.836,18.702-11.46,19.166-10.624c6.988,12.607-20.821,12.929-13.799,25.598c0.465,0.84,18.718-11.474,19.184-10.634
				c6.513,11.749-21.437,10.834-14.861,22.698c0.47,0.848,18.727-11.494,19.199-10.642c9.529,17.191-18.807,21.086-9.327,38.188
				c0.578,1.042,19.012-11.913,19.595-10.861"/>
			<path fill="none" stroke="#000000" stroke-width="2" stroke-linecap="round" stroke-linejoin="round" d="M306.905,139.464
				c0.508,0.916,18.82-11.621,19.324-10.712c18.886,34.071-81.131,13.008-62.234,47.097c2.398,4.325,23.755-18.83,26.156-14.499"/>
			<path fill="none" stroke="#000000" stroke-width="2" stroke-linecap="round" stroke-linejoin="round" d="M305.942,143.283
				c0.591,1.067,19.037-11.941,19.626-10.879c14.299,25.795,10.234,27.848,24.532,53.643c1.441,2.599-0.595-3.036,0.832-0.461
				c2.22,4.005-8.97,2.198-6.77,6.166c1.434,2.587,21.232-15.151,22.666-12.564c17.542,31.647-60.081,27.493-42.594,59.041
				c0.627,1.13,19.132-12.087,19.76-10.953c8.021,14.47,13.149,11.043,21.2,25.568c0.607,1.095,19.081-12.013,19.69-10.914
				c4.708,8.494-19.386,4.24-14.7,12.695c0.602,1.085,19.075-12.004,19.681-10.91"/>
			<path fill="none" stroke="#000000" stroke-width="2" stroke-linecap="round" stroke-linejoin="round" d="M321.541,274.584
				c2.94,5.305,25.165-20.876,28.102-15.577c5.773,10.414,17.985-13.599,23.804-3.101c0.635,1.145,19.165-12.134,19.806-10.979"/>
			<path fill="none" stroke="#000000" stroke-width="2" stroke-linecap="round" stroke-linejoin="round" d="M315.604,275.14
				c0.71,1.281,19.363-12.424,20.08-11.13c7.782,14.039-10.076,18.002-2.286,32.056c0.473,0.854,18.732-11.504,19.207-10.647
				c8.205,14.803-7.684,19.046,0.52,33.845c0.465,0.839,18.708-11.46,19.17-10.626"/>
			<path fill="none" stroke="#000000" stroke-width="2" stroke-linecap="round" stroke-linejoin="round" d="M298.614,311.642
				c0.745,1.343,19.448-12.549,20.198-11.196c3.545,6.395-6.658,7.894-3.113,14.289c0.741,1.337,19.428-12.511,20.166-11.178
				c6.941,12.521,14.705,6.225,21.646,18.748c0.124,0.224,17.816-10.168,17.94-9.944"/>
			<path fill="none" stroke="#000000" stroke-width="2" stroke-linecap="round" stroke-linejoin="round" d="M295.494,309.581
				c0.188,0.339,17.984-10.414,18.173-10.073c16.235,29.289-23.926,37.757-7.703,67.024c0.481,0.868,18.747-11.526,19.228-10.658"/>
			<path fill="none" stroke="#000000" stroke-width="2" stroke-linecap="round" stroke-linejoin="round" d="M262.361,332.566
				c0.507,0.915,18.822-11.622,19.326-10.713c13.114,23.659,11.806,24.536,24.855,48.076c0.488,0.881,18.778-11.561,19.266-10.68
				c5.13,9.255-22.466,3.048-17.349,12.279c0.087,0.156,2.459-1.567,2.545-1.411"/>
			<path fill="none" stroke="#000000" stroke-width="2" stroke-linecap="round" stroke-linejoin="round" d="M260.808,329.606
				c0.183,0.331,17.972-10.392,18.154-10.063c18.007,32.486-55.412,31.754-37.454,64.151c0.691,1.246,19.295-12.326,19.986-11.079"
				/>
			<path fill="none" stroke="#000000" stroke-width="2" stroke-linecap="round" stroke-linejoin="round" d="M220.631,332.672
				c0.481,0.869,18.749-11.526,19.23-10.659c8.16,14.721-19.823,17.018-11.609,31.836c0.474,0.855,18.733-11.493,19.203-10.645
				c11.233,20.265-17.702,25.862-6.373,46.3c0.118,0.214,17.801-10.147,17.92-9.933"/>
			<path fill="none" stroke="#000000" stroke-width="2" stroke-linecap="round" stroke-linejoin="round" d="M219.419,330.51
				c0.583,1.051,19.012-11.912,19.594-10.861c9.57,17.264-40.616,7.121-31.047,24.385c2.347,4.234,1.418-6.372,3.787-2.099
				c9.891,17.843-43.265,5.63-33.374,23.473c2.331,4.205,23.576-18.554,25.902-14.358"/>
			<path fill="none" stroke="#000000" stroke-width="2" stroke-linecap="round" stroke-linejoin="round" d="M106.748,255.072
				c0.641,1.157,19.165-12.135,19.806-10.979c17.917,32.324-16.489,41.578,1.428,73.902c1.29,2.328,20.869-14.621,22.164-12.286
				c8.792,15.861,23.908,0.142,32.62,15.858c0.61,1.101,19.09-12.01,19.695-10.917c16.049,28.953-44.662,31.244-28.461,60.471
				c0.503,0.907,14.846-9.42,15.351-8.509"/>
			<path fill="none" stroke="#000000" stroke-width="2" stroke-linecap="round" stroke-linejoin="round" d="M114.612,253.802
				c2.843,5.129,24.963-20.592,27.827-15.425c5.303,9.567,16.542-12.011,21.876-2.387c0.717,1.294,19.364-12.421,20.079-11.13"/>
			<path fill="none" stroke="#000000" stroke-width="2" stroke-linecap="round" stroke-linejoin="round" d="M124.549,187.639
				c0.123,0.223,17.817-10.166,17.94-9.944c8.773,15.828-4.571,20.281,4.118,35.958c0.475,0.857,18.731-11.503,19.206-10.646
				c6.392,11.532-12.97,14.007-6.579,25.536c0.479,0.864,18.748-11.528,19.23-10.659c3.189,5.753-9.955,5.532-6.768,11.281
				c0.482,0.869,0.585-1.455,1.065-0.59"/>
			<path fill="none" stroke="#000000" stroke-width="2" stroke-linecap="round" stroke-linejoin="round" d="M129.828,190.184
				c0.722,1.302,19.383-12.439,20.101-11.142c4.262,7.689,2.835,8.463,7.067,16.098c0.733,1.322,19.418-12.493,20.152-11.17
				c3.675,6.631-2.292,8.468,1.384,15.099c0.746,1.346,19.448-12.533,20.192-11.192c4.676,8.436-19.799,3.651-15.104,12.12
				c0.839,1.513,19.68-12.886,20.518-11.373c5.186,9.355-23.04,2.49-17.846,11.861c0.188,0.339,17.985-10.414,18.173-10.074"/>
			<path fill="none" stroke="#000000" stroke-width="2" stroke-linecap="round" stroke-linejoin="round" d="M173.751,138.331
				c0.088,0.158,17.722-10.03,17.809-9.872c5.052,9.114-22.569,2.375-17.512,11.498c0.363,0.654,18.438-11.076,18.801-10.421
				c6.266,11.305-23.443,8.044-17.17,19.36c0.482,0.869,18.749-11.529,19.231-10.66c14.498,26.155-24.889,33.18-10.333,59.441
				c0.491,0.885,18.772-11.563,19.263-10.678"/>
		</g>
	</g>
</g>
</svg>
