<?xml version="1.0" encoding="utf-8"?>
<!-- Generator: Adobe Illustrator 17.0.0, SVG Export Plug-In . SVG Version: 6.00 Build 0)  -->
<!DOCTYPE svg PUBLIC "-//W3C//DTD SVG 1.1//EN" "http://www.w3.org/Graphics/SVG/1.1/DTD/svg11.dtd">
<svg version="1.1" xmlns="http://www.w3.org/2000/svg" xmlns:xlink="http://www.w3.org/1999/xlink" x="0px" y="0px" width="1440px"
	 height="72px" viewBox="0 0 1440 72" enable-background="new 0 0 1440 72" xml:space="preserve">
<g id="bg">
	<rect fill="#212121" width="1440" height="72"/>
</g>
<g id="menu">
	<rect x="8" y="32" fill="#FAFAFA" width="56" height="8"/>
	<rect x="8" y="52" fill="#FAFAFA" width="56" height="8"/>
	<rect x="1430" y="36" fill="#FAFAFA" width="0" height="0"/>
	
		<rect x="1374.567" y="31.795" transform="matrix(0.7071 -0.7071 0.7071 0.7071 385.7663 1003.3221)" fill="#FAFAFA" width="58.867" height="8.41"/>
	<rect x="83" y="32" fill="#FAFAFA" width="53" height="8"/>
	<rect x="158" y="32" fill="#FAFAFA" width="50" height="8"/>
	<rect x="232" y="32" fill="#FAFAFA" width="48" height="8"/>
	<rect x="307" y="32" fill="#FAFAFA" width="45" height="8"/>
	<rect x="382" y="32" fill="#FAFAFA" width="42" height="8"/>
	<rect x="457" y="32" fill="#FAFAFA" width="39" height="8"/>
	<rect x="532" y="32" fill="#FAFAFA" width="36" height="8"/>
	<rect x="606" y="32" fill="#FAFAFA" width="34" height="8"/>
	<rect x="681" y="32" fill="#FAFAFA" width="31" height="8"/>
	<rect x="756" y="32" fill="#FAFAFA" width="28" height="8"/>
	<rect x="831" y="32" fill="#FAFAFA" width="25" height="8"/>
	<rect x="906" y="32" fill="#FAFAFA" width="22" height="8"/>
	<rect x="980" y="32" fill="#FAFAFA" width="20" height="8"/>
	<rect x="1055" y="32" fill="#FAFAFA" width="17" height="8"/>
	<rect x="1130" y="32" fill="#FAFAFA" width="14" height="8"/>
	<rect x="1205" y="32" fill="#FAFAFA" width="11" height="8"/>
	<rect x="1280" y="32" fill="#FAFAFA" width="8" height="8"/>
	<rect x="1354" y="32" fill="#FAFAFA" width="6" height="8"/>
	
		<rect x="81.799" y="50.782" transform="matrix(0.999 -0.0436 0.0436 0.999 -2.2851 4.8415)" fill="#FAFAFA" width="56" height="8"/>
	
		<rect x="151.545" y="49.575" transform="matrix(0.9962 -0.0872 0.0872 0.9962 -3.9861 15.8522)" fill="#FAFAFA" width="56" height="8"/>
	
		<rect x="224.238" y="48.379" transform="matrix(0.9914 -0.1305 0.1305 0.9914 -4.679 33.3718)" fill="#FAFAFA" width="56" height="8"/>
	
		<rect x="295.88" y="47.199" transform="matrix(0.9848 -0.1736 0.1736 0.9848 -3.9701 57.019)" fill="#FAFAFA" width="56" height="8"/>
	
		<rect x="368.471" y="46.035" transform="matrix(0.9763 -0.2164 0.2164 0.9763 -1.4315 86.9979)" fill="#FAFAFA" width="56" height="8"/>
	
		<rect x="440.011" y="44.889" transform="matrix(0.9659 -0.2588 0.2588 0.9659 3.2936 122.7959)" fill="#FAFAFA" width="56" height="8"/>
	
		<rect x="511.501" y="43.765" transform="matrix(0.9537 -0.3007 0.3007 0.9537 10.6064 164.4419)" fill="#FAFAFA" width="56" height="8"/>
	
		<rect x="583.943" y="42.665" transform="matrix(0.9397 -0.342 0.342 0.9397 20.9444 212.1111)" fill="#FAFAFA" width="56" height="8"/>
	
		<rect x="656.338" y="41.589" transform="matrix(0.9239 -0.3827 0.3827 0.9239 34.6458 265.3551)" fill="#FAFAFA" width="56" height="8"/>
	
		<rect x="727.686" y="40.541" transform="matrix(0.9063 -0.4226 0.4226 0.9063 51.9779 323.5399)" fill="#FAFAFA" width="56" height="8"/>
	
		<rect x="799.986" y="39.376" transform="matrix(0.887 -0.4617 0.4617 0.887 73.5249 387.2224)" fill="#FAFAFA" width="56" height="8"/>
	<rect x="872.249" y="38.536" transform="matrix(0.866 -0.5 0.5 0.866 99.3425 455.8231)" fill="#FAFAFA" width="56" height="8"/>
	
		<rect x="944.466" y="37.582" transform="matrix(0.8434 -0.5373 0.5373 0.8434 129.9544 529.0176)" fill="#FAFAFA" width="56" height="8"/>
	
		<rect x="1015.642" y="36.663" transform="matrix(0.8192 -0.5736 0.5736 0.8192 165.417 605.9623)" fill="#FAFAFA" width="56" height="8"/>
	
		<rect x="1087.779" y="35.781" transform="matrix(0.7934 -0.6088 0.6088 0.7934 206.3547 687.4637)" fill="#FAFAFA" width="56" height="8"/>
	
		<rect x="1159.878" y="34.938" transform="matrix(0.766 -0.6428 0.6428 0.766 252.8819 772.663)" fill="#FAFAFA" width="56" height="8"/>
	
		<rect x="1231.941" y="34.134" transform="matrix(0.7373 -0.6756 0.6756 0.7373 305.2519 861.2228)" fill="#FAFAFA" width="56" height="8"/>
	
		<rect x="1303.971" y="33.373" transform="matrix(0.7071 -0.7071 0.7071 0.7071 363.6988 952.7916)" fill="#FAFAFA" width="56" height="8"/>
	<rect x="8" y="12" fill="#FAFAFA" width="56" height="8"/>
	
		<rect x="1374.567" y="32.01" transform="matrix(0.7071 0.7071 -0.7071 0.7071 436.8295 -982.171)" fill="#FAFAFA" width="58.867" height="8.41"/>
	
		<rect x="81.799" y="13.432" transform="matrix(0.999 0.0436 -0.0436 0.999 0.8649 -4.7728)" fill="#FAFAFA" width="56" height="8"/>
	
		<rect x="151.545" y="14.639" transform="matrix(0.9962 0.0872 -0.0872 0.9962 2.3078 -15.5774)" fill="#FAFAFA" width="56" height="8"/>
	
		<rect x="224.238" y="15.835" transform="matrix(0.9914 0.1305 -0.1305 0.9914 4.7469 -32.754)" fill="#FAFAFA" width="56" height="8"/>
	
		<rect x="295.88" y="17.016" transform="matrix(0.9848 0.1736 -0.1736 0.9848 8.5698 -55.9219)" fill="#FAFAFA" width="56" height="8"/>
	
		<rect x="368.471" y="18.18" transform="matrix(0.9763 0.2164 -0.2164 0.9763 14.1985 -85.2862)" fill="#FAFAFA" width="56" height="8"/>
	
		<rect x="440.011" y="19.325" transform="matrix(0.9659 0.2588 -0.2588 0.9659 21.984 -120.3353)" fill="#FAFAFA" width="56" height="8"/>
	
		<rect x="511.501" y="20.449" transform="matrix(0.9537 0.3007 -0.3007 0.9537 32.3217 -161.0996)" fill="#FAFAFA" width="56" height="8"/>
	
		<rect x="583.943" y="21.55" transform="matrix(0.9397 0.342 -0.342 0.9397 45.6432 -207.7561)" fill="#FAFAFA" width="56" height="8"/>
	
		<rect x="656.338" y="22.625" transform="matrix(0.9239 0.3827 -0.3827 0.9239 62.281 -259.8581)" fill="#FAFAFA" width="56" height="8"/>
	
		<rect x="727.686" y="23.673" transform="matrix(0.9063 0.4226 -0.4226 0.9063 82.4969 -316.774)" fill="#FAFAFA" width="56" height="8"/>
	
		<rect x="799.986" y="24.839" transform="matrix(0.887 0.4617 -0.4617 0.887 106.8697 -379.063)" fill="#FAFAFA" width="56" height="8"/>
	<rect x="872.249" y="25.678" transform="matrix(0.866 0.5 -0.5 0.866 135.4497 -446.1482)" fill="#FAFAFA" width="56" height="8"/>
	
		<rect x="944.466" y="26.632" transform="matrix(0.8434 0.5373 -0.5373 0.8434 168.7552 -517.7082)" fill="#FAFAFA" width="56" height="8"/>
	
		<rect x="1015.642" y="27.551" transform="matrix(0.8192 0.5736 -0.5736 0.8192 206.8374 -592.9025)" fill="#FAFAFA" width="56" height="8"/>
	
		<rect x="1087.779" y="28.433" transform="matrix(0.7934 0.6088 -0.6088 0.7934 250.3159 -672.5409)" fill="#FAFAFA" width="56" height="8"/>
	
		<rect x="1159.878" y="29.277" transform="matrix(0.766 0.6428 -0.6428 0.766 299.3004 -755.7681)" fill="#FAFAFA" width="56" height="8"/>
	
		<rect x="1231.941" y="30.08" transform="matrix(0.7373 0.6756 -0.6756 0.7373 354.0392 -842.2505)" fill="#FAFAFA" width="56" height="8"/>
	
		<rect x="1303.971" y="30.842" transform="matrix(0.7071 0.7071 -0.7071 0.7071 414.762 -931.6406)" fill="#FAFAFA" width="56" height="8"/>
</g>
</svg>
